<svg xmlns="http://www.w3.org/2000/svg" viewBox="0 0 1600 900" role="img" aria-labelledby="title desc">
  <title id="title">Citizen centric public service challenge</title>
  <desc id="desc">An illustration of civic systems, forms, and connected service counters.</desc>
  <defs>
    <linearGradient id="bg" x1="0" y1="0" x2="1" y2="1">
      <stop offset="0%" stop-color="#f8f1df"/>
      <stop offset="55%" stop-color="#efe8d7"/>
      <stop offset="100%" stop-color="#d8eadf"/>
    </linearGradient>
  </defs>
  <rect width="1600" height="900" fill="url(#bg)"/>
  <rect x="132" y="210" width="1336" height="510" rx="30" fill="#f8f5ee" stroke="#d8d2c2" stroke-width="6"/>
  <rect x="190" y="270" width="350" height="390" rx="24" fill="#0f4d33"/>
  <rect x="600" y="270" width="380" height="168" rx="22" fill="#e8dcc3"/>
  <rect x="600" y="468" width="380" height="192" rx="22" fill="#dce7df"/>
  <rect x="1040" y="270" width="370" height="390" rx="24" fill="#f1ece0"/>
  <circle cx="365" cy="390" r="86" fill="#e8f1e8"/>
  <circle cx="365" cy="350" r="34" fill="#2b8b57"/>
  <path d="M284 500c28-52 68-78 121-78s93 26 121 78" fill="#2b8b57"/>
  <rect x="670" y="318" width="240" height="26" rx="13" fill="#fffdf8"/>
  <rect x="670" y="368" width="188" height="22" rx="11" fill="#fffdf8" opacity=".92"/>
  <rect x="670" y="524" width="240" height="26" rx="13" fill="#0f4d33" opacity=".82"/>
  <rect x="670" y="574" width="280" height="22" rx="11" fill="#0f4d33" opacity=".62"/>
  <path d="M1110 370h220" stroke="#2b8b57" stroke-linecap="round" stroke-width="24"/>
  <path d="M1110 440h170" stroke="#d2b05e" stroke-linecap="round" stroke-width="24"/>
  <path d="M1110 510h210" stroke="#2b8b57" stroke-linecap="round" stroke-width="24"/>
  <path d="M1110 580h140" stroke="#d2b05e" stroke-linecap="round" stroke-width="24"/>
  <path d="M0 770c164-72 358-72 522-18s322 72 478 14 338-92 600-8v142H0Z" fill="#dce7df"/>
</svg>
