<svg xmlns="http://www.w3.org/2000/svg" viewBox="0 0 1600 900">
  <defs>
    <linearGradient id="g" x1="0" y1="0" x2="1" y2="1">
      <stop offset="0%" stop-color="#eff4ea"/>
      <stop offset="100%" stop-color="#f4e8d5"/>
    </linearGradient>
  </defs>
  <rect width="1600" height="900" fill="url(#g)"/>
  <circle cx="800" cy="450" r="250" fill="#fffdf8"/>
  <g fill="none" stroke="#0f4d33" stroke-linecap="round" stroke-width="30">
    <path d="M800 180v108"/>
    <path d="M800 612v108"/>
    <path d="M530 450H422"/>
    <path d="M1178 450h-108"/>
    <path d="m610 260-76-76"/>
    <path d="m1066 716-76-76"/>
    <path d="m610 640-76 76"/>
    <path d="m1066 184-76 76"/>
  </g>
  <circle cx="800" cy="450" r="124" fill="#2b8b57"/>
  <path d="M800 334c52 44 78 92 78 144 0 62-36 108-108 138 12-54 4-100-26-138-20-24-40-42-60-54 28-44 66-74 116-90Z" fill="#dce7df"/>
</svg>
